<svg width="16" height="16" viewBox="0 0 16 16" fill="none" xmlns="http://www.w3.org/2000/svg">
<path d="M7.99998 2.80659C8.82665 3.14659 9.76665 3.33325 10.6666 3.33325C11.3666 3.33325 12.0666 3.22659 12.72 3.02659C12.3333 3.66659 12 4.47325 12 5.33325C12 6.21325 12.36 7.28658 12.7333 8.41992C13 9.21992 13.3333 10.2199 13.3333 10.6666C13.3333 11.3533 10.98 12.6666 7.99998 13.3066C5.02665 12.6666 2.66665 11.3533 2.66665 10.6666C2.66665 10.2199 2.99998 9.21992 3.26665 8.41992C3.63998 7.28658 3.99998 6.21325 3.99998 5.33325C3.99998 4.47325 3.66665 3.66659 3.27998 3.02659C3.93331 3.22659 4.63998 3.33325 5.33331 3.33325C6.23331 3.33325 7.17331 3.14659 7.99998 2.80659ZM13.3333 1.33325C12.5666 1.75992 11.6 1.99992 10.6666 1.99992C9.73331 1.99992 8.75998 1.75325 7.99998 1.33325C7.23998 1.75325 6.26665 1.99992 5.33331 1.99992C4.39998 1.99992 3.43331 1.75992 2.66665 1.33325L1.33331 2.66659C1.33331 2.66659 2.66665 3.99992 2.66665 5.33325C2.66665 6.66658 1.33331 9.33325 1.33331 10.6666C1.33331 13.3333 7.99998 14.6666 7.99998 14.6666C7.99998 14.6666 14.6666 13.3333 14.6666 10.6666C14.6666 9.33325 13.3333 6.66658 13.3333 5.33325C13.3333 3.99992 14.6666 2.66659 14.6666 2.66659L13.3333 1.33325ZM10.0333 10.9666L7.97998 9.72658L5.93331 10.9666L6.47998 8.63325L4.66665 7.07325L7.05331 6.86659L7.97998 4.66658L8.91331 6.85992L11.3 7.06659L9.48665 8.62658L10.0333 10.9666Z" fill="#D49900"/>
</svg>
