<svg width="17" height="16" viewBox="0 0 17 16" fill="none" xmlns="http://www.w3.org/2000/svg">
<path d="M11.8265 9.58365C11.6968 10.3078 11.3484 10.9749 10.8282 11.4951C10.3079 12.0153 9.64072 12.3635 8.9165 12.493C8.88901 12.4974 8.86122 12.4997 8.83337 12.4999C8.70795 12.4999 8.58713 12.4527 8.49485 12.3678C8.40258 12.2828 8.3456 12.1663 8.33522 12.0413C8.32484 11.9163 8.36181 11.792 8.4388 11.693C8.51579 11.594 8.62718 11.5275 8.75087 11.5068C9.7865 11.3324 10.6652 10.4536 10.8409 9.41615C10.8631 9.28536 10.9363 9.16876 11.0445 9.09199C11.1527 9.01521 11.287 8.98456 11.4177 9.00677C11.5485 9.02899 11.6651 9.10224 11.7419 9.21043C11.8187 9.31861 11.8493 9.45286 11.8271 9.58365H11.8265ZM13.8334 8.9999C13.8334 10.4586 13.2539 11.8575 12.2225 12.889C11.191 13.9204 9.79206 14.4999 8.33337 14.4999C6.87468 14.4999 5.47574 13.9204 4.44429 12.889C3.41284 11.8575 2.83337 10.4586 2.83337 8.9999C2.83337 7.2549 3.52087 5.47052 4.87462 3.69677C4.91748 3.64061 4.97174 3.59416 5.03385 3.5605C5.09595 3.52683 5.16449 3.5067 5.23494 3.50145C5.30539 3.49619 5.37615 3.50592 5.44257 3.53C5.50898 3.55408 5.56954 3.59196 5.62025 3.64115L7.12775 5.10427L8.50275 1.32865C8.53022 1.25334 8.57539 1.18575 8.63446 1.13156C8.69353 1.07737 8.76476 1.03818 8.84214 1.01728C8.91953 0.996391 9.0008 0.994409 9.07912 1.01151C9.15743 1.0286 9.23049 1.06428 9.29212 1.11552C10.659 2.2499 13.8334 5.28427 13.8334 8.9999ZM12.8334 8.9999C12.8334 6.11927 10.5965 3.6299 9.19525 2.35427L7.80337 6.17115C7.77481 6.24954 7.72708 6.31954 7.66453 6.37477C7.60199 6.42999 7.52662 6.46869 7.44529 6.48733C7.36396 6.50596 7.27926 6.50395 7.19891 6.48148C7.11856 6.459 7.0451 6.41678 6.98525 6.35865L5.33712 4.7599C4.339 6.20052 3.83337 7.6249 3.83337 8.9999C3.83337 10.1934 4.30748 11.338 5.15139 12.1819C5.99531 13.0258 7.1399 13.4999 8.33337 13.4999C9.52685 13.4999 10.6714 13.0258 11.5154 12.1819C12.3593 11.338 12.8334 10.1934 12.8334 8.9999Z" fill="#1254D6"/>
</svg>
