<svg width="16" height="16" viewBox="0 0 16 16" fill="none" xmlns="http://www.w3.org/2000/svg">
<path fill-rule="evenodd" clip-rule="evenodd" d="M7.98166 13.5789C5.82233 13.5789 3.97766 13.2522 3.97766 11.9442C3.97766 10.6362 5.81033 9.49756 7.98166 9.49756C10.141 9.49756 11.9857 10.6256 11.9857 11.9329C11.9857 13.2402 10.153 13.5789 7.98166 13.5789Z" stroke="#8E27C2" stroke-width="1.2" stroke-linecap="round" stroke-linejoin="round"/>
<path fill-rule="evenodd" clip-rule="evenodd" d="M7.98166 7.63242C9.39899 7.63242 10.5483 6.48376 10.5483 5.06642C10.5483 3.64909 9.39899 2.49976 7.98166 2.49976C6.56432 2.49976 5.41499 3.64909 5.41499 5.06642C5.41099 6.47842 6.55099 7.62776 7.96366 7.63242H7.98166Z" stroke="#8E27C2" stroke-width="1.2" stroke-linecap="round" stroke-linejoin="round"/>
<path d="M12.2415 6.92777C13.0661 6.70711 13.6741 5.9551 13.6741 5.05977C13.6741 4.12577 13.0121 3.34577 12.1308 3.16577" stroke="#8E27C2" stroke-width="1.2" stroke-linecap="round" stroke-linejoin="round"/>
<path d="M12.6288 9.02954C13.7982 9.02954 14.7968 9.82221 14.7968 10.5302C14.7968 10.9469 14.4522 11.4009 13.9295 11.5235" stroke="#8E27C2" stroke-width="1.2" stroke-linecap="round" stroke-linejoin="round"/>
<path d="M3.72258 6.92777C2.89725 6.70711 2.28925 5.9551 2.28925 5.05977C2.28925 4.12577 2.95191 3.34577 3.83258 3.16577" stroke="#8E27C2" stroke-width="1.2" stroke-linecap="round" stroke-linejoin="round"/>
<path d="M3.33457 9.02954C2.16523 9.02954 1.16656 9.82221 1.16656 10.5302C1.16656 10.9469 1.51123 11.4009 2.03456 11.5235" stroke="#8E27C2" stroke-width="1.2" stroke-linecap="round" stroke-linejoin="round"/>
</svg>
