<svg width="16" height="16" viewBox="0 0 16 16" fill="none" xmlns="http://www.w3.org/2000/svg">
<path d="M3.33331 11.6667H1.99998C1.82317 11.6667 1.6536 11.5964 1.52858 11.4714C1.40355 11.3464 1.33331 11.1768 1.33331 11V3.66667C1.33331 3.48986 1.40355 3.32029 1.52858 3.19526C1.6536 3.07024 1.82317 3 1.99998 3H10.3333C10.5101 3 10.6797 3.07024 10.8047 3.19526C10.9297 3.32029 11 3.48986 11 3.66667V5.96633C10.9999 6.17165 11.0631 6.372 11.1809 6.54017C11.2987 6.70834 11.4654 6.83618 11.6583 6.90633L14.0083 7.76067C14.2013 7.83082 14.368 7.95866 14.4857 8.12683C14.6035 8.295 14.6667 8.49535 14.6666 8.70067V11C14.6666 11.1768 14.5964 11.3464 14.4714 11.4714C14.3464 11.5964 14.1768 11.6667 14 11.6667H12.6666M5.99998 11.6667H9.99998" stroke="#CD002A" stroke-width="1.2" stroke-linejoin="round"/>
<path d="M4 6.33333H6.66667M5.33333 5V7.66667" stroke="#CD002A" stroke-width="1.2" stroke-linecap="round" stroke-linejoin="round"/>
<path d="M4.66665 12.9999C5.40303 12.9999 5.99998 12.403 5.99998 11.6666C5.99998 10.9302 5.40303 10.3333 4.66665 10.3333C3.93027 10.3333 3.33331 10.9302 3.33331 11.6666C3.33331 12.403 3.93027 12.9999 4.66665 12.9999Z" stroke="#CD002A" stroke-width="1.2"/>
<path d="M11.3333 12.9999C12.0697 12.9999 12.6667 12.403 12.6667 11.6666C12.6667 10.9302 12.0697 10.3333 11.3333 10.3333C10.597 10.3333 10 10.9302 10 11.6666C10 12.403 10.597 12.9999 11.3333 12.9999Z" stroke="#CD002A" stroke-width="1.2"/>
</svg>
